PathFileType	4	(X/Y/Z)	C:/Users/beibeiliu/ov580/test_trc/capture2\sequence.8_training_dense_left.trc
DataRate	CameraRate	NumFrames	NumMarkers	Units	OrigDataRate	OrigDataStartFrame	OrigNumFrames
120	120	19	19	mm	120	201	400
Frame#	Time	ThumbCMC			ThumbMCP			ThumbIP			ThumbTip			IndexMCP			IndexPIP			IndexTip			MiddleMCP			MiddlePIP			MiddleTip			RingMCP			RingPIP			RingTip			PinkyMCP			PinkyPIP			PinkyTip			BackHand1			BackHand2			BackHand3	
		X0	Y0	Z0	X1	Y1	Z1	X2	Y2	Z2	X3	Y3	Z3	X4	Y4	Z4	X5	Y5	Z5	X6	Y6	Z6	X7	Y7	Z7	X8	Y8	Z8	X9	Y9	Z9	X10	Y10	Z10	X11	Y11	Z11	X12	Y12	Z12	X13	Y13	Z13	X14	Y14	Z14	X15	Y15	Z15	X16	Y16	Z16	X17	Y17	Z17	X18	Y18	Z18	
200	1.66667	-193.178	92.1381	-51.0742	-193.125	110.989	-67.0471	-201.613	130.131	-83.9556	-206.531	142.351	-98.3224	-181.913	80.8722	-126.1	-180.434	88.3852	-144.234	-183.592	88.53	-169.417	-171.515	54.9332	-125.425	-168.115	57.8467	-154.36	-162.272	50.3951	-178.205	-157.81	42.4812	-118.546	-147.264	36.883	-139.296	-140.387	33.8695	-166.19	-138.565	25.7569	-102.357	-122.736	21.0539	-114.772	-111.265	4.81175	-130.228	-177.556	34.8113	-72.9094	-185.689	31.0216	-45.2093	-197.554	58.9024	-61.629	
201	1.675	-196.067	84.4515	-51.7559	-198.184	104.192	-63.2268	-204.779	117.805	-81.9938	-211.097	131.694	-96.049	-182.15	69.5694	-123.038	-181.095	75.0898	-149.095	-182.784	74.7267	-168.442	-173.024	47.6501	-127.187	-165.354	45.7408	-153.881	-162.155	39.2202	-177.13	-153.945	28.4752	-120.174	-143.265	25.2239	-141.056	-136.871	20.3013	-165.809	-135.386	15.7501	-100.852	-118.54	10.1834	-114.091	-107.718	-0.552596	-126.877	-176.385	25.7404	-76.0253	-187.045	25.3219	-43.2967	-199.312	50.6251	-61.3672	
202	1.68333	-198.605	75.3185	-47.7614	-197.085	90.6865	-69.6154	-207.116	106.772	-86.0112	-217.007	122.131	-96.6566	-186.062	61.6401	-120.611	-185.331	65.7459	-147.491	-183.66	60.9257	-168.768	-173.372	38.6665	-124.763	-167.135	36.7028	-152.937	-160.171	27.0835	-174.081	-155.945	24.363	-119.06	-145.944	20.7485	-136.857	-136.802	14.4142	-160.463	-133.142	9.67873	-101.528	-120.426	6.0047	-109.513	-107.365	-7.97302	-123.975	-176.463	19.9327	-74.6909	-187.575	17.0741	-44.8171	-197.293	42.4208	-64.6682	
203	1.69167	-201.366	67.3847	-51.6264	-202.528	85.3361	-69.9422	-212.766	99.3535	-87.4926	-219.428	108.983	-100.281	-186.098	49.6277	-121.551	-186.521	55.7067	-143.609	-184.861	49.5665	-168.079	-172.475	28.6653	-123.021	-166.594	27.3628	-149.478	-161.51	21.4521	-174.395	-152.853	13.1727	-115.056	-142.831	10.9059	-139.714	-133.875	1.68014	-161.109	-135.344	4.20295	-95.6764	-117.726	-0.938092	-109.606	-106.66	-11.7786	-121.365	-174.082	9.34047	-72.4247	-184.016	5.61628	-40.8118	-199.865	36.1279	-63.2395	
204	1.7	-200.385	56.9277	-50.858	-203.756	75.3586	-69.4931	-210.932	87.2673	-85.5457	-223.84	100.537	-102.79	-188.572	43.3789	-124.46	-183.662	41.7493	-146.391	-184.788	38.4278	-170.601	-170.083	17.6572	-122.051	-164.217	16.2588	-144.567	-156.653	7.83519	-170.521	-153.479	7.86956	-114.1	-140.876	2.66484	-137.005	-132.406	-4.6436	-154.878	-133.625	-2.43075	-93.1121	-116.347	-6.17807	-105.35	-103.036	-20.0624	-116.334	-176.074	4.68352	-69.3927	-184.77	3.12361	-40.3832	-200.171	25.3979	-60.4371	
205	1.70833	-204.489	51.9329	-51.4825	-204.421	66.8045	-66.3599	-214.618	77.8276	-90.4332	-227.129	89.7136	-100.874	-187.362	32.5131	-118.984	-186.978	35.9026	-145.764	-184.348	28.5983	-167.848	-171.494	11.6665	-121.399	-161.713	6.27518	-143.832	-155.547	-0.846355	-171.178	-148.92	-2.59169	-113.706	-138.29	-6.23216	-133.698	-133.084	-9.09309	-153.631	-130.054	-8.1885	-95.7062	-113.877	-10.6494	-103.52	-103.871	-22.2534	-116.584	-175.054	-3.83679	-67.8502	-179.398	-6.78284	-36.9914	-197.917	16.1388	-58.7487	
206	1.71667	-204.128	42.1334	-51.6963	-205.892	57.5587	-68.257	-215.86	67.351	-89.6527	-232.598	79.1851	-104.27	-185.574	21.278	-119.365	-186.16	25.289	-146.652	-185.17	19.682	-167.762	-169.688	3.75673	-121.499	-159.139	-2.25719	-143.112	-155.539	-7.0352	-168.53	-148.136	-8.08759	-108.896	-138.596	-10.82	-131.165	-127.308	-18.209	-153.931	-129.903	-11.5419	-88.9656	-112.261	-14.5007	-103.354	-98.801	-27.8719	-119.026	-173.012	-10.3333	-66.1078	-178.715	-13.6617	-33.3896	-197.962	10.2064	-60.0638	
207	1.725	-205.809	32.4432	-48.3722	-209.217	48.9566	-67.0971	-221.837	57.1439	-89.8894	-235.447	66.8776	-100.396	-187.102	13.9827	-120.095	-186.127	17.336	-142.46	-183.33	11.2808	-164.242	-166.795	-4.98722	-119.39	-158.963	-8.51634	-140.555	-152.635	-16.8977	-166.649	-149.016	-11.0658	-109.878	-134.328	-16.9362	-126.435	-127.283	-20.412	-149.812	-124.151	-17.6133	-86.7489	-108.832	-20.1142	-98.7359	-92.122	-30.3119	-113.111	-170.063	-16.0471	-62.1884	-177.251	-19.8249	-34.6013	-197.096	0.475534	-53.9811	
208	1.73333	-206.635	25.6056	-45.7093	-208.867	38.3407	-68.1126	-225.163	47.8297	-88.5229	-239.042	56.2717	-103.583	-184.119	5.28313	-118.098	-186.626	9.04998	-142.332	-182.187	2.11348	-162.373	-164.704	-11.726	-114.883	-156.864	-13.48	-139.767	-148.115	-24.4626	-166.283	-143.227	-18.6099	-104.344	-133.802	-19.0958	-129.261	-123.148	-26.4383	-150.501	-124.706	-19.2773	-87.8244	-105.445	-21.1138	-100.51	-93.0036	-30.4001	-109.5	-166.311	-20.8466	-57.72	-172.558	-24.1012	-29.968	-193.159	-7.81156	-52.8027	
209	1.74167	-206.243	18.1989	-45.0184	-210.764	31.5375	-63.6894	-225.705	37.7885	-89.9818	-238.281	43.9618	-101.918	-184.77	-0.539317	-113.241	-182.185	0.875486	-139.252	-178.549	-7.18739	-162.168	-160.897	-17.8951	-112.976	-153.475	-20.5746	-138.555	-149.622	-26.8167	-164.293	-143.838	-20.9079	-103.03	-133.1	-23.3407	-124.212	-121.082	-29.6506	-148.738	-119.691	-21.7548	-83.1102	-102.215	-23.3863	-94.874	-86.6593	-33.2904	-110.428	-162.54	-27.2346	-56.6225	-171.72	-27.2995	-32.7304	-192.351	-15.5173	-50.006	
210	1.75	-205.61	10.6978	-47.0413	-209.798	25.3396	-64.4494	-222.678	30.1287	-87.3639	-239.982	36.4328	-101.529	-186.059	-5.54774	-116.226	-183.967	-4.59674	-140.396	-177.35	-12.6474	-158.906	-159.755	-21.7958	-114.174	-153.472	-22.3076	-134.356	-143.463	-32.9828	-163.436	-138.287	-25.8072	-101.771	-130.784	-25.9419	-121.849	-119.099	-31.9126	-145.494	-117.762	-26.08	-79.6607	-100.612	-26.054	-93.8241	-86.9008	-35.2779	-108.652	-163.057	-31.9407	-53.8487	-168.047	-31.8739	-24.7614	-190.915	-19.2648	-52.8135	
211	1.75833	-202.673	6.34885	-44.4961	-208.403	19.1533	-67.4439	-224.633	25.7332	-88.1108	-235.678	30.8237	-99.8298	-184.727	-10.7644	-116.107	-180.051	-10.6815	-136.752	-175.575	-19.6595	-160.933	-157.099	-26.9406	-110.933	-150.835	-27.5907	-133.062	-140.092	-37.4498	-161.519	-135.399	-30.6428	-103.493	-126.241	-32.2642	-123.395	-115.021	-36.7373	-146.821	-114.797	-29.0317	-82.5051	-100.986	-27.3084	-92.4763	-86.3932	-37.499	-106.108	-156.597	-36.8711	-55.232	-164.166	-36.4189	-27.7861	-192.186	-24.2439	-52.0931	
212	1.76667	-206.708	3.1132	-45.6148	-212.945	16.1992	-62.204	-223.979	20.1178	-87.2764	-235.545	25.6599	-100.282	-182.058	-15.2783	-114.447	-180.329	-15.302	-135.744	-176.802	-22.5664	-158.891	-160.085	-28.1391	-109.924	-146.177	-33.152	-132.962	-141.109	-39.9778	-160.188	-136.592	-33.089	-100.481	-124.683	-34.6562	-123.535	-114.721	-39.1807	-141.817	-117.547	-30.1822	-78.596	-99.2797	-30.8819	-91.5725	-81.2311	-39.2609	-101.229	-154.864	-39.0191	-52.159	-164.033	-40.7049	-23.9376	-184.825	-27.6411	-50.1733	
213	1.775	-201.295	-1.67191	-41.3938	-212.145	13.1949	-62.34	-221.639	15.0049	-86.0538	-239.715	20.241	-101.626	-178.989	-20.4483	-114.817	-179.077	-19.2317	-135.417	-172.044	-27.2554	-154.654	-155.169	-33.894	-112.874	-147.916	-36.1368	-130.862	-137.609	-44.6926	-155.417	-134.178	-36.863	-98.2587	-123.687	-38.7576	-120.217	-115.015	-42.3393	-140.399	-114.584	-33.3724	-79.3171	-97.57	-34.1348	-92.8192	-78.7975	-45.0581	-102.542	-153.04	-42.3853	-51.6398	-161.729	-41.9819	-23.5988	-187.88	-29.6253	-47.112	
214	1.78333	-201.856	-4.72084	-41.595	-209.214	7.92445	-64.8117	-221.398	11.8258	-86.3413	-234.752	16.9693	-98.8648	-179.799	-23.9371	-112.942	-175.4	-23.7684	-133.679	-173.772	-30.759	-157.658	-156.43	-36.6498	-108.032	-149.472	-39.2792	-134.829	-141.081	-47.7113	-157.989	-132.61	-40.3262	-96.5623	-122.197	-42.8496	-115.829	-110.347	-47.3814	-140.784	-113.156	-37.3225	-77.2663	-94.0411	-38.0297	-90.7471	-75.9383	-48.7451	-101.29	-154.683	-46.291	-53.2421	-163.07	-44.2723	-23.7409	-185.414	-36.1557	-46.979	
215	1.79167	-199.417	-7.31008	-42.742	-208.604	5.14009	-62.6726	-221.596	9.61931	-84.4887	-233.901	14.3228	-96.4281	-178.177	-27.4363	-106.911	-175.648	-28.1891	-130.887	-172.351	-34.5589	-153.002	-153.51	-41.7746	-109.038	-148.527	-42.9593	-129.406	-140.26	-53.8356	-157.646	-133.706	-44.5047	-100.291	-120.186	-46.991	-114.914	-113.225	-50.9645	-138.397	-110.646	-41.8202	-76.5602	-96.902	-41.5084	-88.1629	-78.4426	-52.8803	-100.634	-152.624	-47.9906	-50.6342	-165.595	-48.4045	-21.7121	-185.727	-38.703	-48.8247	
216	1.8	-200.5	-9.9091	-38.1441	-208.132	2.71583	-64.3298	-222.339	7.18875	-82.1825	-235.385	10.7372	-98.6808	-179.688	-30.9488	-107.976	-176.359	-32.1315	-134.293	-174.937	-38.8057	-152.889	-158.332	-43.2951	-106.743	-149.52	-48.386	-132.063	-137.647	-57.76	-155.318	-135.36	-46.1594	-94.9558	-120.952	-50.202	-115.876	-113.06	-55.8954	-139.808	-114.01	-45.071	-77.8889	-98.1035	-44.9653	-87.3657	-80.4824	-56.06	-100.968	-156.804	-50.9151	-51.5424	-161.244	-50.9503	-22.583	-184.945	-40.4695	-46.5485	
217	1.80833	-203.504	-10.6737	-43.4443	-209.221	1.08526	-64.167	-221.389	5.98559	-80.8622	-233.486	8.96734	-98.6417	-180.787	-32.3503	-109.594	-177.052	-33.3174	-129.455	-177.017	-39.9707	-153.257	-156.377	-47.6138	-110.05	-149.887	-50.3438	-130.331	-140.028	-60.1716	-154.175	-134.28	-48.9307	-97.8348	-121.084	-52.9653	-113.925	-113.686	-59.1257	-141.042	-115.304	-45.4152	-74.8324	-95.9482	-47.6545	-84.4692	-78.0157	-56.9913	-101.021	-157.03	-52.8495	-51.1091	-162.853	-50.9682	-20.7251	-185.087	-42.098	-46.1267	
218	1.81667	-202.323	-10.8055	-43.0867	-208.627	1.34445	-61.3268	-222.023	4.32918	-83.0357	-235.796	9.57272	-98.3353	-180.06	-32.6655	-107.839	-176.909	-33.2985	-129.575	-177.333	-40.6485	-153.552	-155.694	-48.8749	-108.114	-148.116	-50.8197	-127.94	-140.172	-60.9622	-155.392	-134.874	-49.3005	-94.1757	-124.043	-53.6364	-117.146	-113.244	-59.1111	-136.404	-115.161	-46.32	-72.1093	-98.2411	-48.2404	-89.636	-80.018	-59.251	-101.56	-156.894	-52.5771	-49.952	-162.462	-53.5683	-21.6805	-186.584	-43.6627	-43.7159	
